<?xml version="1.0" standalone="no"?>
<!DOCTYPE svg PUBLIC "-//W3C//DTD SVG 20010904//EN"
 "http://www.w3.org/TR/2001/REC-SVG-20010904/DTD/svg10.dtd">
<svg version="1.0" xmlns="http://www.w3.org/2000/svg"
 width="16.000000pt" height="16.000000pt" viewBox="0 0 16.000000 16.000000"
 preserveAspectRatio="xMidYMid meet">
<metadata>
Created by potrace 1.11, written by Peter Selinger 2001-2013
</metadata>
<g transform="translate(0.000000,16.000000) scale(0.006154,-0.006154)"
fill="#000000" stroke="none">
<path d="M1165 1697 c-74 -20 -133 -49 -200 -100 -33 -25 -236 -222 -451 -439
-355 -357 -394 -399 -425 -463 l-34 -70 -3 -198 c-2 -110 -1 -214 2 -233 9
-44 51 -93 101 -115 38 -18 94 -19 1135 -19 734 0 1107 4 1133 11 51 14 104
63 118 108 7 23 10 111 7 242 l-3 204 -34 70 c-31 64 -69 106 -430 468 -218
219 -425 419 -460 444 -95 69 -174 95 -301 99 -65 2 -124 -1 -155 -9z m-425
-699 c1 -127 2 -141 15 -123 8 11 56 75 107 142 l93 123 83 0 83 0 -102 -127
c-56 -71 -107 -134 -112 -140 -7 -9 21 -59 93 -168 56 -86 103 -164 104 -173
1 -14 -10 -17 -66 -20 l-68 -3 -37 58 c-20 32 -56 89 -81 127 l-44 69 -34 -39
c-32 -38 -33 -42 -34 -126 l0 -88 -65 0 -65 0 0 315 0 315 65 0 65 0 0 -142z"/>
</g>
</svg>
