<?xml version="1.0" standalone="no"?>
<!DOCTYPE svg PUBLIC "-//W3C//DTD SVG 20010904//EN"
 "http://www.w3.org/TR/2001/REC-SVG-20010904/DTD/svg10.dtd">
<svg version="1.0" xmlns="http://www.w3.org/2000/svg"
 width="700.000000pt" height="700.000000pt" viewBox="0 0 700.000000 700.000000"
 preserveAspectRatio="xMidYMid meet">
<metadata>
Created by potrace 1.11, written by Peter Selinger 2001-2013
</metadata>
<g transform="translate(0.000000,700.000000) scale(0.100000,-0.100000)"
fill="#000000" stroke="none">
<path d="M530 6703 c-56 -8 -117 -28 -159 -52 -59 -33 -140 -116 -172 -177
-56 -105 -53 7 -53 -2231 -1 -1401 -4 -2073 -11 -2073 -7 0 -7 -3 0 -8 14 -10
14 -105 1 -114 -7 -5 -7 -8 -1 -8 6 0 10 -65 11 -175 0 -111 -3 -172 -9 -168
-6 4 -7 1 -1 -8 12 -19 13 -179 0 -172 -5 4 -6 1 0 -8 4 -8 9 -203 9 -434 1
-409 2 -422 24 -479 33 -88 50 -115 113 -178 59 -59 134 -103 184 -107 10 -1
14 -7 10 -17 -3 -8 -2 -12 3 -9 5 3 1359 5 3008 5 2916 0 3000 1 3050 19 29
10 54 16 57 13 3 -3 6 -1 6 5 0 11 59 40 73 35 5 -1 6 2 3 7 -4 5 7 18 24 27
16 10 33 26 36 36 3 10 9 18 14 18 5 0 17 14 25 30 9 18 21 28 27 24 6 -4 8
-3 5 3 -4 6 5 39 19 74 19 49 25 85 27 156 1 51 6 89 11 85 5 -3 5 1 0 9 -12
20 -12 399 1 399 7 0 7 3 0 8 -14 10 -14 492 0 492 5 0 3 5 -5 10 -13 9 -13
11 0 20 8 5 10 10 5 10 -12 0 -14 218 -3 236 4 6 4 14 1 18 -12 12 -11 126 1
126 7 0 8 3 1 8 -13 9 -14 433 -1 425 5 -4 6 0 0 8 -12 19 -12 439 0 432 5 -4
6 -1 0 8 -13 21 -14 119 0 119 7 0 8 3 1 8 -13 9 -14 393 -1 385 5 -4 6 -1 0
8 -12 19 -12 1599 0 1592 5 -4 5 0 0 8 -12 19 -12 439 0 432 5 -4 6 -1 0 8
-13 21 -14 119 0 119 7 0 7 3 1 8 -6 4 -10 118 -11 308 0 219 -4 314 -14 350
-45 165 -187 296 -351 324 -51 8 -5904 12 -5959 3z"/>
<path d="M553 235 c0 -8 4 -12 9 -9 4 3 8 9 8 15 0 5 -4 9 -8 9 -5 0 -9 -7 -9
-15z"/>
<path d="M2305 239 c-3 -4 2 -6 10 -5 21 3 28 13 10 13 -9 0 -18 -4 -20 -8z"/>
<path d="M3905 239 c-3 -4 2 -6 10 -5 21 3 28 13 10 13 -9 0 -18 -4 -20 -8z"/>
<path d="M4545 239 c-3 -4 2 -6 10 -5 21 3 28 13 10 13 -9 0 -18 -4 -20 -8z"/>
<path d="M5185 239 c-3 -4 2 -6 10 -5 21 3 28 13 10 13 -9 0 -18 -4 -20 -8z"/>
<path d="M5825 239 c-3 -4 2 -6 10 -5 21 3 28 13 10 13 -9 0 -18 -4 -20 -8z"/>
<path d="M1519 193 c-13 -16 -12 -17 4 -4 16 13 21 21 13 21 -2 0 -10 -8 -17
-17z"/>
<path d="M1839 193 c-13 -16 -12 -17 4 -4 16 13 21 21 13 21 -2 0 -10 -8 -17
-17z"/>
<path d="M2275 201 c-3 -5 -2 -12 3 -15 5 -3 9 1 9 9 0 17 -3 19 -12 6z"/>
<path d="M2355 201 c-3 -5 -2 -12 3 -15 5 -3 9 1 9 9 0 17 -3 19 -12 6z"/>
<path d="M3439 193 c-13 -16 -12 -17 4 -4 16 13 21 21 13 21 -2 0 -10 -8 -17
-17z"/>
<path d="M3759 193 c-13 -16 -12 -17 4 -4 16 13 21 21 13 21 -2 0 -10 -8 -17
-17z"/>
<path d="M3875 201 c-3 -5 -2 -12 3 -15 5 -3 9 1 9 9 0 17 -3 19 -12 6z"/>
<path d="M3955 201 c-3 -5 -2 -12 3 -15 5 -3 9 1 9 9 0 17 -3 19 -12 6z"/>
<path d="M4515 201 c-3 -5 -2 -12 3 -15 5 -3 9 1 9 9 0 17 -3 19 -12 6z"/>
<path d="M4595 201 c-3 -5 -2 -12 3 -15 5 -3 9 1 9 9 0 17 -3 19 -12 6z"/>
<path d="M5155 201 c-3 -5 -2 -12 3 -15 5 -3 9 1 9 9 0 17 -3 19 -12 6z"/>
<path d="M5235 201 c-3 -5 -2 -12 3 -15 5 -3 9 1 9 9 0 17 -3 19 -12 6z"/>
<path d="M5795 201 c-3 -5 -2 -12 3 -15 5 -3 9 1 9 9 0 17 -3 19 -12 6z"/>
<path d="M5875 201 c-3 -5 -2 -12 3 -15 5 -3 9 1 9 9 0 17 -3 19 -12 6z"/>
</g>
</svg>
