<?xml version="1.0" standalone="no"?>
<!DOCTYPE svg PUBLIC "-//W3C//DTD SVG 20010904//EN"
 "http://www.w3.org/TR/2001/REC-SVG-20010904/DTD/svg10.dtd">
<svg version="1.0" xmlns="http://www.w3.org/2000/svg"
 width="700.000000pt" height="700.000000pt" viewBox="0 0 700.000000 700.000000"
 preserveAspectRatio="xMidYMid meet">
<metadata>
Created by potrace 1.11, written by Peter Selinger 2001-2013
</metadata>
<g transform="translate(0.000000,700.000000) scale(0.100000,-0.100000)"
fill="#000000" stroke="none">
<path d="M3340 4513 c-328 -51 -559 -157 -784 -359 -50 -45 -530 -522 -1067
-1060 -739 -742 -987 -996 -1022 -1050 -67 -103 -113 -205 -144 -319 -26 -100
-26 -101 -31 -547 -4 -489 0 -545 47 -645 55 -114 188 -212 316 -233 84 -14
5575 -13 5670 0 146 22 269 108 329 233 19 40 37 88 40 107 5 27 2 23 -13 -17
-48 -137 -161 -240 -306 -278 -51 -13 -162 -15 -757 -15 -384 0 -698 4 -698 8
0 7 -57 313 -309 1648 -50 265 -91 484 -91 488 0 19 207 -7 340 -44 99 -28
223 -87 329 -157 71 -47 207 -177 804 -772 l717 -715 0 319 c-1 493 -12 593
-91 779 -74 175 -65 165 -1172 1270 -568 565 -1064 1052 -1102 1081 -209 155
-441 246 -700 275 -87 9 -254 11 -305 3z m-1268 -1820 l3 -357 65 90 c110 152
472 615 484 620 6 2 100 3 207 2 l196 -3 -238 -300 c-132 -165 -259 -325 -283
-355 l-44 -56 283 -429 c263 -399 282 -431 267 -448 -14 -16 -33 -17 -190 -15
l-175 3 -197 308 c-108 169 -201 312 -206 317 -7 7 -39 -21 -92 -79 l-82 -89
0 -231 0 -231 -167 2 -168 3 -3 803 -2 802 170 0 170 0 2 -357z"/>
</g>
</svg>
