<?xml version="1.0" standalone="no"?>
<!DOCTYPE svg PUBLIC "-//W3C//DTD SVG 20010904//EN"
 "http://www.w3.org/TR/2001/REC-SVG-20010904/DTD/svg10.dtd">
<svg version="1.0" xmlns="http://www.w3.org/2000/svg"
 width="700.000000pt" height="700.000000pt" viewBox="0 0 700.000000 700.000000"
 preserveAspectRatio="xMidYMid meet">
<metadata>
Created by potrace 1.11, written by Peter Selinger 2001-2013
</metadata>
<g transform="translate(0.000000,700.000000) scale(0.100000,-0.100000)"
fill="#000000" stroke="none">
<path d="M3384 4918 c-250 -16 -524 -121 -734 -280 -93 -70 -2091 -2060 -2154
-2145 -102 -137 -166 -289 -191 -453 -17 -111 -20 -440 -5 -521 28 -150 146
-283 298 -337 44 -16 252 -17 2852 -20 1708 -1 2832 1 2873 7 169 23 313 145
364 306 21 67 14 74 -11 12 -56 -135 -142 -215 -285 -265 -40 -14 -136 -16
-739 -19 l-692 -4 -9 23 c-4 13 -101 518 -215 1123 -113 605 -209 1113 -212
1129 l-6 29 83 -7 c233 -19 441 -96 624 -229 40 -29 378 -357 779 -756 l708
-706 -7 105 c-16 246 -84 429 -225 603 -98 121 -2055 2066 -2144 2131 -175
128 -396 222 -605 256 -142 23 -216 27 -347 18z m-1314 -1790 l0 -362 65 90
c36 49 160 212 276 362 l210 272 206 0 c163 0 203 -3 196 -12 -29 -37 -538
-675 -549 -689 -12 -13 7 -48 147 -260 89 -134 164 -250 167 -257 4 -12 -213
-242 -228 -242 -4 0 -49 66 -100 148 -52 81 -123 191 -158 246 l-64 98 -83
-88 -84 -89 -1 -233 0 -232 -167 2 -168 3 -3 790 c-1 435 0 796 3 803 3 9 47
12 170 12 l165 0 0 -362z m-116 -1690 c-4 -7 -22 -34 -40 -60 -18 -27 -38 -64
-44 -83 -6 -19 -15 -35 -20 -35 -5 0 -10 -10 -12 -22 l-3 -23 -586 -3 c-548
-2 -591 -1 -646 16 -103 32 -184 96 -248 195 l-17 27 811 0 c647 0 811 -3 805
-12z"/>
<path d="M1811 1234 c0 -11 3 -14 6 -6 3 7 2 16 -1 19 -3 4 -6 -2 -5 -13z"/>
<path d="M6703 1595 c0 -22 2 -30 4 -17 2 12 2 30 0 40 -3 9 -5 -1 -4 -23z"/>
</g>
</svg>
