<?xml version="1.0" standalone="no"?>
<!DOCTYPE svg PUBLIC "-//W3C//DTD SVG 20010904//EN"
 "http://www.w3.org/TR/2001/REC-SVG-20010904/DTD/svg10.dtd">
<svg version="1.0" xmlns="http://www.w3.org/2000/svg"
 width="700.000000pt" height="700.000000pt" viewBox="0 0 700.000000 700.000000"
 preserveAspectRatio="xMidYMid meet">
<metadata>
Created by potrace 1.11, written by Peter Selinger 2001-2013
</metadata>
<g transform="translate(0.000000,700.000000) scale(0.100000,-0.100000)"
fill="#000000" stroke="none">
<path d="M3395 4949 c-245 -18 -466 -94 -680 -236 -90 -60 -199 -165 -1129
-1092 -628 -627 -1051 -1056 -1087 -1104 -71 -95 -130 -212 -166 -332 -25 -86
-27 -101 -31 -370 -3 -191 0 -291 7 -317 l12 -38 837 1 837 1 279 284 278 283
-152 238 c-84 131 -155 240 -157 243 -3 3 -43 -35 -89 -84 l-84 -88 0 -229 0
-229 -170 0 -170 0 0 805 0 805 170 0 170 0 2 -357 3 -357 65 90 c36 50 157
210 270 356 l205 267 208 0 c114 1 207 -1 207 -4 0 -2 -126 -163 -281 -356
-200 -250 -279 -356 -274 -367 3 -10 77 -124 162 -255 l157 -237 490 488 c506
502 552 542 706 618 312 154 677 165 993 32 209 -89 211 -91 1001 -877 l718
-716 -5 140 c-4 111 -11 158 -32 230 -35 122 -93 238 -164 332 -83 109 -2063
2084 -2161 2155 -41 30 -102 70 -135 90 -59 36 -190 98 -206 98 -4 0 -34 -51
-67 -114 -71 -135 -144 -248 -244 -377 -60 -78 -73 -90 -79 -73 -4 10 -29 161
-54 334 -26 173 -50 317 -54 320 -3 3 -51 3 -106 -1z"/>
<path d="M6577 1320 c-60 -49 -135 -85 -224 -108 -64 -16 -206 -17 -2282 -17
-1763 0 -2215 -3 -2218 -12 -4 -10 441 -13 2202 -13 2356 0 2276 -2 2392 46
61 25 126 70 156 109 15 19 27 35 25 35 -2 -1 -25 -18 -51 -40z"/>
</g>
</svg>
