<?xml version="1.0" standalone="no"?>
<!DOCTYPE svg PUBLIC "-//W3C//DTD SVG 20010904//EN"
 "http://www.w3.org/TR/2001/REC-SVG-20010904/DTD/svg10.dtd">
<svg version="1.0" xmlns="http://www.w3.org/2000/svg"
 width="700.000000pt" height="700.000000pt" viewBox="0 0 700.000000 700.000000"
 preserveAspectRatio="xMidYMid meet">
<metadata>
Created by potrace 1.11, written by Peter Selinger 2001-2013
</metadata>
<g transform="translate(0.000000,700.000000) scale(0.100000,-0.100000)"
fill="#000000" stroke="none">
<path d="M2072 5658 c-9 -3 -101 -91 -204 -195 l-188 -189 0 -1851 0 -1850
195 -195 194 -195 383 0 382 0 194 196 195 196 -2 384 c-1 374 -1 384 17 360
15 -19 238 -368 575 -897 22 -34 52 -68 66 -75 41 -21 160 -86 232 -127 l66
-37 457 1 457 1 50 95 c28 52 100 186 160 296 60 111 109 204 109 208 0 4 -56
91 -123 194 -68 103 -168 255 -222 337 -214 326 -335 511 -355 540 -12 17 -69
104 -129 195 -59 91 -165 252 -234 357 -70 106 -127 196 -127 199 0 6 176 232
190 244 3 3 93 115 200 250 107 135 197 247 200 250 3 3 54 66 113 140 59 74
177 223 263 330 86 107 158 200 160 206 3 6 -22 66 -54 135 -141 294 -195 407
-219 454 l-25 50 -471 -1 -472 -2 -150 -75 -151 -75 -109 -142 c-61 -77 -118
-151 -127 -163 -10 -12 -68 -88 -130 -168 -146 -189 -168 -217 -195 -248 l-22
-26 0 255 0 254 -195 195 -194 194 -372 1 c-204 1 -379 -2 -388 -6z"/>
</g>
</svg>
