<?xml version="1.0" standalone="no"?>
<!DOCTYPE svg PUBLIC "-//W3C//DTD SVG 20010904//EN"
 "http://www.w3.org/TR/2001/REC-SVG-20010904/DTD/svg10.dtd">
<svg version="1.0" xmlns="http://www.w3.org/2000/svg"
 width="700.000000pt" height="700.000000pt" viewBox="0 0 700.000000 700.000000"
 preserveAspectRatio="xMidYMid meet">
<metadata>
Created by potrace 1.11, written by Peter Selinger 2001-2013
</metadata>
<g transform="translate(0.000000,700.000000) scale(0.100000,-0.100000)"
fill="#000000" stroke="none">
<path d="M1179 5829 c-5 -3 -8 -949 -7 -2334 l3 -2329 2320 -1 c1276 -1 2323
0 2327 2 4 2 -517 528 -1158 1169 l-1165 1165 -28 -30 -29 -31 -106 161 c-70
106 -103 165 -98 173 12 14 733 898 776 951 19 22 105 128 193 235 87 107 281
345 431 528 150 183 272 336 272 340 0 5 -1086 8 -1160 3 -8 -1 -53 -51 -100
-113 -47 -61 -98 -127 -115 -148 -16 -20 -41 -52 -55 -70 -14 -18 -97 -126
-185 -239 -580 -749 -793 -1028 -965 -1264 l-195 -268 -5 1053 -5 1053 -468 0
c-258 0 -473 -3 -478 -6z m1524 -2901 c40 -62 76 -118 80 -125 5 -8 -110 -130
-318 -338 -179 -179 -327 -325 -330 -325 -3 0 -5 82 -5 183 l0 182 30 33 c16
19 78 86 138 150 148 158 161 172 249 268 42 46 78 84 80 84 2 0 36 -51 76
-112z"/>
</g>
</svg>
