<?xml version="1.0" encoding="utf-8"?>
<!-- Generator: Adobe Illustrator 19.1.0, SVG Export Plug-In . SVG Version: 6.00 Build 0)  -->
<svg version="1.1" id="Layer_1" xmlns="http://www.w3.org/2000/svg" xmlns:xlink="http://www.w3.org/1999/xlink" x="0px" y="0px"
	 width="48px" height="48px" viewBox="-207.1 179.1 48 48" style="enable-background:new -207.1 179.1 48 48;" xml:space="preserve"
	>
<style type="text/css">
	.st0{fill:#FFFFFF;}
</style>
<polygon class="st0" points="-183,182.8 -188,185.1 -188,202.9 -178.1,202.9 -178.1,185.1 "/>
<polygon class="st0" points="-188,203.4 -188,221.1 -183,223.4 -178.1,221.1 -178.1,203.4 "/>
<polygon class="st0" points="-201,208 -200.5,213.4 -195.9,216.5 -180.6,207.5 -185.7,198.9 "/>
<polygon class="st0" points="-200.5,193.1 -201,198.5 -185.7,207.6 -180.6,199 -195.9,190 "/>
<polygon class="st0" points="-185.7,207.5 -170.3,216.5 -165.8,213.4 -165.3,208 -180.6,198.9 "/>
<polygon class="st0" points="-185.7,199 -180.6,207.6 -165.3,198.5 -165.8,193.1 -170.3,190 "/>
</svg>
