<?xml version="1.0" encoding="utf-8"?>
<!-- Generator: Adobe Illustrator 19.1.0, SVG Export Plug-In . SVG Version: 6.00 Build 0)  -->
<svg version="1.1" xmlns="http://www.w3.org/2000/svg" xmlns:xlink="http://www.w3.org/1999/xlink" x="0px" y="0px" width="373px"
	 height="164px" viewBox="0 0 373 164" style="enable-background:new 0 0 373 164;" xml:space="preserve">
<style type="text/css">
	.st0{display:none;}
	.st1{display:inline;stroke:#FFFFFF;stroke-miterlimit:10;}
	.st2{clip-path:url(#SVGID_2_);fill:#FFFFFF;}
	.st3{fill:#FFFFFF;}
	.st4{clip-path:url(#SVGID_4_);fill:#FFFFFF;}
</style>
<g id="Layer_2" class="st0">
	<rect x="-335" y="-58" class="st1" width="1055" height="447"/>
</g>
<g id="Layer_1">
	<g>
		<defs>
			<rect id="SVGID_1_" x="-2.7" y="7" width="382.4" height="154"/>
		</defs>
		<clipPath id="SVGID_2_">
			<use xlink:href="#SVGID_1_"  style="overflow:visible;"/>
		</clipPath>
		<path class="st2" d="M128.7,7c0.1,0.2-2,1.7-4.7,3.4c-2.7,1.7-5.1,2.9-5.2,2.7c-0.1-0.2,2-1.7,4.7-3.4C126.3,8,128.6,6.8,128.7,7"
			/>
		<path class="st2" d="M194.7,92.3c-1.8-0.1-3.2-0.4-4.7-0.4c-1.7,0-3.2,0.2-4.7,0.4V82.2c-3.8,7.2-10.5,11.1-18.8,11.1
			c-13,0-19.5-6.7-19.5-22.7l0.1-34c0.7,0,7.4-0.1,9.5-0.2l-0.2,31.3c0,12.4,3.7,19.7,14.3,19.7c12,0,14.5-10.6,14.5-19l0.2-32.1
			c1.5,0.1,3,0.7,4.7,0.7c1.5,0,2.9-0.4,4.7-0.5L194.7,92.3z"/>
		<path class="st2" d="M128.6,7.1l-0.1,29.3l18.6,0c-0.4,1.7,0.7,3,1.1,4.2l-19.7,0.1l0.1,28.2c0,7.2-1.1,19.1,8.7,19.1
			c1.8,0,3.5-0.5,5.3-0.8V90c-3.2,1.2-6.5,2.1-9.9,2.1c-9,0-14.2-4.1-13.6-18.5L119,40.7l-7.4,0.1c0.4-1.5,0.4-3,0.1-4.6l7.3,0.1
			l0.1-23.5L128.6,7.1z"/>
		<path class="st2" d="M285.9,45.8c3.9-6.7,9.2-10.9,17.5-10.9c7.7,0,14.8,4.1,17.2,11.7c4.5-7.6,10.5-11.7,18.5-11.7
			c14.4,0,19,8.4,19,23v34.1c-1.8-0.1-3.2-0.4-4.7-0.4c-1.7,0-3.2,0.2-4.7,0.4V60.7c0-10.5-1.5-19.6-13.1-19.6
			c-11.9,0-13.6,10.6-13.6,19.1v31.9c-1.8-0.1-3.2-0.4-4.7-0.4c-1.7,0-3.2,0.2-4.7,0.4V57.5c0-11.1-3.8-16.4-12.5-16.4
			c-12.2,0-14.2,8-14.2,16.7v34.4c-1.8-0.1-1.2-0.2-2.7-0.2"/>
		<path class="st2" d="M286.1,92.8c-1.8-0.1-3.2-0.4-4.7-0.4c-1.7,0-3.2,0.2-4.7,0.4V82.7c-3.8,7.2-10.5,11.1-18.8,11.1
			c-13,0-19.5-6.7-19.5-22.7V36.4c1.5,0.1,3.1,0.4,4.7,0.4c1.5,0,3-0.2,4.7-0.4v31.9c0,12.4,3.7,19.7,14.3,19.7
			c12,0,14.5-10.6,14.5-19V36.4c1.5,0.1,3.1,0.4,4.7,0.4c1.5,0,3-0.2,4.7-0.4V92.8z"/>
		<path class="st2" d="M9.4,35.8c1.5,0.1,3.1,0.4,4.7,0.4c1.5,0,3-0.2,4.7-0.4v10.7c4.1-7.2,10.6-11.5,19-11.5c13.7,0,19,7.4,19,23
			v34.1c-1.8-0.1-3.2-0.4-4.7-0.4c-1.7,0-3.2,0.2-4.7,0.4V60.8c0-11-2-19.6-13.1-19.6c-12.4,0-15.5,9.1-15.5,23.6v27.4
			c-1.8-0.1-3.2-0.4-4.7-0.4c-1.7,0-3.2,0.2-4.7,0.4V35.8z"/>
		<path class="st2" d="M97.7,62.8l-4.1,0.8c-8,1.5-20.1,2.7-20.1,13.5c0,7.4,4.4,11.1,11.6,11.1c3.2,0,7.2-2.2,9.4-4.5
			c0.8-0.8,3.2-2.8,3.2-3.7V62.8z M107.1,82.3c0,4.6-0.4,7,6.6,5.4v2.6c-0.8,0.4-2.2,0.9-3.5,1.2c-6.1,1.1-11.2,0.1-12.2-6.9
			L97,85.7c-5,5-10.4,7.4-17.5,7.4c-8.4,0-15.7-5.7-15.7-14.4c0-13.5,10.7-15.2,21.9-17c9.3-1.5,12.5-2.2,12.5-7.9
			c0-8.7-5-13.8-13.8-13.8c-8.6,0-13.2,5.6-14.1,8.1H69v-6.6c5.7-3.9,12-6.5,19-6.5c12.4,0,19.1,6.5,19.1,19.8V82.3z"/>
		<path class="st2" d="M203.7,35.8c1.5,0.1,3.1,0.4,4.7,0.4c1.5,0,3-0.2,4.7-0.4v11.8l0.6-1.4c3.9-6.1,9-11.1,14.9-11.1
			c1.7,0,2.6,0.1,3.7,0.6l-1.7,9.9c-1.8-0.5-3.5-1.9-5.6-1.9c-2.6,0-5.8,0.9-7.6,3c-4.1,4.7-4.4,8.6-4.4,15v30.6
			c-1.8-0.1-3.2-0.4-4.7-0.4c-1.7,0-3.2,0.2-4.7,0.4V35.8z"/>
	</g>
	<rect x="146.2" y="36.4" class="st3" width="10.4" height="1.5"/>
	<rect x="127.5" y="38.3" class="st3" width="21.6" height="2.4"/>
	<polygon class="st3" points="120.1,74.8 119.2,74.6 119.1,54.6 120.1,54.6 	"/>
	<g>
		<defs>
			<rect id="SVGID_3_" x="-2.7" y="7" width="382.4" height="154"/>
		</defs>
		<clipPath id="SVGID_4_">
			<use xlink:href="#SVGID_3_"  style="overflow:visible;"/>
		</clipPath>
		<path class="st4" d="M361.9,31h1c1,0,1.3-0.3,1.3-0.9c0-0.5-0.3-0.8-1.2-0.8h-1.1V31z M361.9,34h-0.8v-5.4h2.1
			c1.3,0,1.9,0.5,1.9,1.5c0,1-0.6,1.4-1.4,1.5l1.5,2.4h-0.9l-1.4-2.3h-0.9V34z M362.9,27.5c-2.2,0-3.8,1.7-3.8,3.9
			c0,2.3,1.7,3.9,3.8,3.9c2.1,0,3.8-1.6,3.8-3.9C366.7,29.1,365,27.5,362.9,27.5 M362.9,26.7c2.5,0,4.7,2,4.7,4.6
			c0,2.7-2.2,4.7-4.7,4.7c-2.6,0-4.7-2-4.7-4.7C358.2,28.7,360.3,26.7,362.9,26.7"/>
		<path class="st4" d="M11,142.8c0.1-2,0.1-4,0.1-6.1v-8c0-2,0-4.1-0.1-6c-0.1-2-0.2-4-0.3-6c0.4,0.1,0.8,0.1,1.2,0.2
			c0.4,0,0.7,0.1,1.1,0.1c0.4,0,0.7,0,1.1-0.1c0.4,0,0.8-0.1,1.2-0.2c-0.1,2-0.2,4.1-0.3,6c-0.1,2-0.1,4-0.1,6v2.6
			c0,0.2,0.1,0.4,0.3,0.4c0.1,0,0.3-0.1,0.7-0.4c1.1-0.9,2.2-2,3.4-3.2c1.2-1.2,2.4-2.4,3.6-3.7c1.2-1.3,2.4-2.6,3.6-3.9
			c1.2-1.3,2.3-2.6,3.4-3.8c0.3,0.1,0.7,0.1,1,0.2c0.3,0,0.6,0.1,0.9,0.1c0.4,0,0.7,0,1.1-0.1c0.4,0,0.7-0.1,1.1-0.2
			c-1.1,0.9-2.3,2-3.7,3.3c-1.4,1.3-2.7,2.6-4.1,3.9c-1.4,1.3-2.7,2.6-4,3.9c-1.3,1.3-2.3,2.4-3.1,3.4c2.5,2.8,5,5.7,7.6,8.6
			c2.6,2.9,5.2,5.9,7.8,8.8c-0.5-0.1-0.9-0.1-1.4-0.1h-1.4h-1.3c-0.4,0-0.8,0-1.3,0.1c-1.1-1.3-2.4-2.7-3.7-4.4
			c-1.3-1.6-2.7-3.2-4-4.8c-1.3-1.5-2.5-2.9-3.5-4.1c-1-1.2-1.8-2.1-2.3-2.6c-0.2-0.2-0.4-0.4-0.6-0.4c-0.2,0-0.2,0.1-0.2,0.3v4
			c0,2,0,4.1,0.1,6c0.1,2,0.2,3.9,0.3,5.9c-0.7-0.1-1.5-0.1-2.3-0.1c-0.8,0-1.6,0-2.3,0.1C10.8,146.7,10.9,144.8,11,142.8"/>
		<path class="st4" d="M35.8,137.4c0.1-1.2,0.1-2.3,0.1-3.5c0-1.1,0-2.3,0-3.5c0-1.3,0-2.6-0.1-3.9c0.8,0.2,1.4,0.3,2,0.3
			c0.5,0,1.1-0.1,1.9-0.3c-0.1,1.9-0.3,3.9-0.3,6.1c-0.1,2.2-0.1,4.5-0.1,6.8c0,1.6,0.1,2.8,0.4,3.7c0.3,0.9,0.6,1.5,1,1.9
			c0.4,0.5,1,0.9,1.7,1.2c0.7,0.3,1.4,0.5,2.3,0.5c1.3,0,2.4-0.3,3.3-0.9c0.9-0.6,1.5-1.3,1.9-2.1c0.2-0.5,0.4-1,0.5-1.3
			c0.1-0.4,0.2-0.9,0.3-1.5c0.1-0.6,0.1-1.5,0.1-2.5c0-1.1,0-2.5,0-4.3v-3.9c0-0.7,0-1.3,0-2c0-0.6,0-1.2,0-1.8
			c0.3,0.1,0.7,0.1,1,0.2c0.3,0.1,0.6,0.1,1,0.1c0.3,0,0.7,0,1-0.1c0.3-0.1,0.6-0.1,0.9-0.2c-0.2,2.4-0.3,4.8-0.3,7
			c0,2.3,0,4.6,0,7.2c0,1.4,0,2.8,0,4.1c0,1.3,0.1,2.6,0.1,3.9c-0.6-0.1-1.2-0.1-1.8-0.1c-0.6,0-1.2,0-1.8,0.1
			c0-0.3,0.1-0.6,0.1-0.9c0-0.3,0-0.6,0-1v-2h-0.1c-0.8,1.5-1.9,2.6-3.1,3.3c-1.3,0.7-2.7,1-4.2,1c-2.4,0-4.3-0.6-5.7-1.9
			c-1.4-1.3-2.1-3.1-2.1-5.6C35.7,139.9,35.7,138.5,35.8,137.4"/>
		<path class="st4" d="M61.4,123.5c0-1.2,0-2.5-0.1-3.7c0-1.2-0.1-2.4-0.1-3.5c0-1.1-0.1-2-0.2-2.8c0.9,0.1,1.6,0.2,2.1,0.2
			c0.5,0,1.2-0.1,2.1-0.2c-0.1,0.8-0.1,1.7-0.1,2.8c0,1.1-0.1,2.3-0.1,3.5c0,1.2,0,2.4-0.1,3.7c0,1.2,0,2.4,0,3.4v8.4
			c0,1.1,0,2.2,0,3.4s0,2.5,0.1,3.7c0,1.2,0.1,2.4,0.1,3.4c0,1.1,0.1,2,0.1,2.7c-0.7-0.1-1.4-0.1-2.1-0.1c-0.7,0-1.4,0-2.1,0.1
			c0.1-0.7,0.1-1.6,0.2-2.7c0-1.1,0.1-2.2,0.1-3.4c0-1.2,0.1-2.4,0.1-3.7c0-1.2,0-2.4,0-3.4v-8.4C61.4,125.9,61.4,124.7,61.4,123.5"
			/>
		<path class="st4" d="M72.9,123.5c0-1.2,0-2.5-0.1-3.7c0-1.2-0.1-2.4-0.1-3.5c0-1.1-0.1-2-0.2-2.8c0.9,0.1,1.6,0.2,2.1,0.2
			c0.5,0,1.2-0.1,2.1-0.2c-0.1,0.8-0.1,1.7-0.1,2.8c0,1.1-0.1,2.3-0.1,3.5c0,1.2,0,2.4-0.1,3.7c0,1.2,0,2.4,0,3.4v8.4
			c0,1.1,0,2.2,0,3.4s0,2.5,0.1,3.7c0,1.2,0.1,2.4,0.1,3.4c0,1.1,0.1,2,0.1,2.7c-0.7-0.1-1.4-0.1-2.1-0.1c-0.7,0-1.4,0-2.1,0.1
			c0.1-0.7,0.1-1.6,0.2-2.7c0-1.1,0.1-2.2,0.1-3.4c0-1.2,0.1-2.4,0.1-3.7c0-1.2,0-2.4,0-3.4v-8.4C73,125.9,73,124.7,72.9,123.5"/>
		<path class="st4" d="M93.4,137.5c-0.7,0.1-1.4,0.3-2.1,0.4c-0.7,0.1-1.4,0.3-2.1,0.5c-0.7,0.2-1.3,0.5-1.9,0.9
			c-0.5,0.4-1,0.8-1.3,1.4c-0.3,0.6-0.5,1.3-0.5,2.1c0,1.5,0.4,2.6,1.3,3.3c0.8,0.7,1.8,1.1,2.8,1.1c1.2,0,2.3-0.3,3.2-1
			c1-0.7,1.7-1.4,2.3-2.3l0.2-7C94.7,137.2,94.1,137.4,93.4,137.5 M87.6,126.6c1.2-0.4,2.4-0.6,3.6-0.6c1.1,0,2.1,0.2,3.1,0.5
			c0.9,0.3,1.7,0.8,2.4,1.4c0.6,0.6,1.2,1.3,1.5,2.2c0.4,0.9,0.6,1.8,0.6,2.8c0,1.8,0,3.5-0.1,5.3c-0.1,1.8-0.1,3.6-0.1,5.6
			c0,0.4,0,0.8,0,1.2c0,0.4,0.1,0.8,0.2,1.1c0.1,0.3,0.3,0.6,0.5,0.8c0.2,0.2,0.6,0.3,1,0.3c0.2,0,0.3,0,0.5,0
			c0.2,0,0.3-0.1,0.5-0.2v1c-0.3,0.2-0.8,0.3-1.3,0.4c-0.5,0.1-1.1,0.1-1.7,0.1c-1,0-1.8-0.3-2.3-0.8c-0.5-0.5-0.8-1.2-0.9-2
			c-1.1,1.1-2.2,1.9-3.3,2.5c-1.1,0.5-2.4,0.8-4,0.8c-0.8,0-1.5-0.1-2.3-0.3c-0.7-0.2-1.4-0.6-2-1.1c-0.6-0.5-1-1.1-1.4-1.8
			c-0.4-0.7-0.5-1.5-0.5-2.4c0-1.9,0.6-3.3,1.7-4.3c1.2-1,2.8-1.7,4.8-2c1.7-0.3,3-0.5,3.9-0.7c0.9-0.2,1.6-0.4,2.1-0.6
			c0.4-0.2,0.7-0.5,0.8-0.8c0.1-0.3,0.1-0.7,0.1-1.1c0-0.8-0.1-1.5-0.3-2.2c-0.2-0.7-0.5-1.3-0.9-1.9c-0.4-0.5-0.9-1-1.6-1.3
			c-0.7-0.3-1.4-0.5-2.4-0.5c-1.2,0-2.4,0.3-3.5,0.8c-1.1,0.6-1.9,1.3-2.4,2.3h-0.5v-2.4C85.1,127.7,86.4,127,87.6,126.6"/>
		<path class="st4" d="M120.9,133.1c-0.4-1.1-0.8-2-1.4-2.8c-0.6-0.7-1.2-1.3-2-1.7c-0.8-0.4-1.5-0.6-2.4-0.6c-1,0-1.9,0.2-2.8,0.5
			c-0.9,0.4-1.7,0.9-2.3,1.8c-0.7,0.8-1.2,1.9-1.6,3.2c-0.4,1.3-0.6,2.9-0.6,4.9c0,6.2,2.3,9.4,6.8,9.4c1,0,1.9-0.3,2.7-0.8
			c0.8-0.5,1.5-1.2,2.1-2.2c0.6-1,1.1-2.1,1.4-3.4c0.3-1.3,0.5-2.8,0.5-4.5C121.5,135.4,121.3,134.2,120.9,133.1 M124.7,141.9
			c-0.5,1.5-1.3,2.8-2.2,3.8c-0.9,1.1-2.1,1.9-3.4,2.5c-1.3,0.6-2.7,0.9-4.2,0.9c-1.5,0-2.8-0.3-4-1c-1.2-0.6-2.1-1.4-2.7-2.3
			c-1.1,0.9-2.2,1.8-3.1,2.7h-0.8c0.1-0.7,0.1-1.6,0.2-2.7c0-1.1,0.1-2.2,0.1-3.4c0-1.2,0.1-2.4,0.1-3.7c0-1.2,0-2.4,0-3.4v-8.4
			c0-1.1,0-2.2,0-3.4c0-1.2,0-2.5-0.1-3.7c0-1.2-0.1-2.4-0.1-3.5c0-1.1-0.1-2-0.2-2.8c0.9,0.1,1.6,0.2,2.1,0.2c0.3,0,0.7,0,1.1-0.1
			c0.4,0,0.8-0.1,1.2-0.2c-0.1,0.6-0.2,1.6-0.2,3c-0.1,1.4-0.1,2.9-0.1,4.5c0,1.7-0.1,3.4-0.1,5.1c0,1.8-0.1,3.3-0.1,4.8h0.1
			c1.1-1.7,2.2-2.9,3.5-3.7c1.3-0.8,2.7-1.2,4.4-1.2c1.6,0,3,0.3,4.2,0.9c1.2,0.6,2.2,1.4,2.9,2.4c0.8,1,1.4,2.1,1.7,3.5
			c0.4,1.3,0.6,2.7,0.6,4.2C125.6,138.8,125.3,140.4,124.7,141.9"/>
		<path class="st4" d="M135.6,128.3c-0.8,0.5-1.4,1.2-2,2c-0.5,0.8-0.9,1.6-1.2,2.6c-0.3,0.9-0.4,1.8-0.5,2.7c1,0,2,0.1,3,0.1
			c1,0,2.1,0.1,3.1,0.1c1,0,2.1,0,3.1-0.1c1.1,0,2.1-0.1,3.1-0.1c0-0.8-0.1-1.7-0.2-2.6c-0.1-0.9-0.4-1.8-0.8-2.6
			c-0.4-0.8-1-1.5-1.7-2c-0.7-0.5-1.7-0.8-2.9-0.8C137.3,127.6,136.4,127.8,135.6,128.3 M130.4,129.3c1.8-2.2,4.5-3.3,7.9-3.3
			c1.6,0,3.1,0.3,4.3,0.8c1.2,0.5,2.2,1.2,3,2c0.8,0.9,1.4,1.9,1.8,3c0.4,1.1,0.6,2.4,0.6,3.7c0,0.3,0,0.6,0,0.9
			c0,0.3,0,0.6-0.1,0.9c-1.7,0-3.3-0.1-5-0.1c-1.6,0-3.3-0.1-5-0.1c-1,0-2,0-3,0.1c-1,0-2,0.1-3,0.1c0,0.2-0.1,0.4-0.1,0.7v0.6
			c0,1.2,0.2,2.4,0.5,3.4c0.4,1.1,0.9,2,1.6,2.7c0.7,0.8,1.5,1.4,2.5,1.8s2.1,0.7,3.5,0.7c0.6,0,1.3-0.1,1.9-0.3s1.3-0.4,1.9-0.7
			c0.6-0.3,1.2-0.6,1.7-1.1c0.5-0.4,1-0.8,1.4-1.3l0.2,0.1l-0.3,2.3c-0.9,0.7-2.1,1.4-3.5,1.9c-1.4,0.5-2.8,0.8-4.3,0.8
			c-1.7,0-3.2-0.3-4.6-0.8c-1.4-0.5-2.6-1.3-3.6-2.2c-1-1-1.8-2.1-2.3-3.5c-0.5-1.3-0.8-2.8-0.8-4.3
			C127.7,134.5,128.6,131.5,130.4,129.3"/>
		<path class="st4" d="M161.2,129.8c-0.5-0.2-0.9-0.2-1.4-0.2c-0.7,0-1.4,0.2-2,0.5c-0.6,0.3-1.1,0.8-1.5,1.4
			c-0.4,0.6-0.7,1.3-0.9,2.1c-0.2,0.8-0.3,1.6-0.3,2.5v5.1c0,2.1,0,3.7,0,4.8c0,1.1,0.1,2,0.1,2.7c-0.6-0.1-1.2-0.1-1.9-0.1
			c-0.7,0-1.3,0-1.9,0.1c0.1-1.1,0.1-2.5,0.1-4.3c0-1.8,0-4,0-6.7v-1.5c0-1.2,0-2.6,0-4.2c0-1.6-0.1-3.4-0.1-5.5
			c0.3,0.1,0.7,0.1,1,0.2c0.3,0,0.6,0.1,1,0.1c0.3,0,0.6,0,0.9-0.1c0.3,0,0.6-0.1,1-0.2c-0.1,1.1-0.2,2-0.2,2.7c0,0.7,0,1.3,0,1.9
			l0.1,0c1.8-3.4,3.9-5,6.1-5c0.3,0,0.5,0,0.7,0c0.2,0,0.5,0.1,0.8,0.2c-0.2,0.4-0.2,0.9-0.3,1.7c0,0.8,0,1.4,0,2.1l-0.3,0.2
			C162,130.1,161.7,130,161.2,129.8"/>
		<path class="st4" d="M177,128.9c-0.9-1-2.2-1.5-3.7-1.5c-1.7,0-3,0.6-3.9,1.7c-0.9,1.1-1.4,2.6-1.4,4.5c0,2,0.4,3.5,1.3,4.6
			c0.9,1.1,2.2,1.7,4,1.7c0.9,0,1.7-0.2,2.3-0.5c0.6-0.4,1.2-0.8,1.6-1.4c0.4-0.6,0.7-1.3,0.9-2.1c0.2-0.8,0.3-1.6,0.3-2.5
			C178.4,131.4,177.9,130,177,128.9 M179.3,149.6c-1.1-0.7-2.9-1.1-5.4-1.1c-2.3,0-4.1,0.4-5.4,1.1c-1.3,0.8-1.9,2.1-1.9,4.1
			c0,1.1,0.2,2,0.5,2.7c0.4,0.7,0.8,1.3,1.4,1.8c0.6,0.5,1.3,0.8,2.2,1c0.8,0.2,1.7,0.3,2.7,0.3c0.9,0,1.8-0.1,2.7-0.4
			c0.9-0.2,1.7-0.6,2.4-1.1c0.7-0.5,1.3-1.1,1.7-1.9c0.4-0.8,0.7-1.7,0.7-2.7C180.9,151.7,180.4,150.4,179.3,149.6 M165.1,130.3
			c0.5-0.9,1.1-1.7,1.9-2.4c0.8-0.6,1.8-1.1,2.8-1.4c1.1-0.3,2.2-0.5,3.4-0.5c0.6,0,1.2,0,1.7,0c0.5,0,1.2,0.1,2.1,0.1
			c0.7,0.1,1.3,0.1,1.9,0.2c0.6,0,1,0.1,1.3,0.1c1.7,0,3-0.1,3.8-0.2c0,0.2-0.1,0.3-0.1,0.5c0,0.2,0,0.3,0,0.5c0,0.2,0,0.3,0,0.5
			c0,0.2,0,0.3,0.1,0.5c-0.9-0.1-1.8-0.1-2.6-0.2c-0.9-0.1-1.7-0.1-2.5-0.2l-0.1,0.1c1,0.5,1.7,1.3,2.3,2.4c0.6,1.1,0.9,2.2,0.9,3.4
			c0,2.3-0.8,4.2-2.3,5.5c-1.6,1.3-3.7,2-6.3,2c-0.4,0-0.9,0-1.3-0.1c-0.4,0-0.8-0.1-1.3-0.1c-0.6,0-1.1,0.2-1.6,0.6
			c-0.5,0.4-0.7,0.9-0.7,1.5c0,0.8,0.2,1.4,0.6,1.8c0.4,0.4,1.1,0.6,2.2,0.6c0.9,0,1.7,0.1,2.6,0.1c0.8,0,1.7,0,2.6,0.1
			c1.4,0,2.6,0.2,3.7,0.5c1,0.3,1.8,0.7,2.5,1.3c0.6,0.5,1.1,1.1,1.4,1.8c0.3,0.7,0.4,1.4,0.4,2.2c0,1.1-0.2,2.2-0.6,3.3
			c-0.4,1.1-1.1,2.1-2,3c-0.9,0.9-2,1.6-3.4,2.2c-1.4,0.6-3.1,0.9-5,0.9c-3,0-5.4-0.6-7.1-1.8c-1.7-1.2-2.6-2.8-2.6-4.9
			c0-0.8,0.1-1.6,0.4-2.2c0.3-0.7,0.7-1.3,1.1-1.8c0.5-0.5,1-0.9,1.6-1.3c0.6-0.3,1.2-0.5,1.8-0.7v-0.1c-1-0.3-1.7-0.7-2.2-1.4
			c-0.5-0.6-0.8-1.4-0.8-2.3c0-0.5,0.1-1,0.3-1.4c0.2-0.4,0.5-0.8,0.8-1.2c0.3-0.3,0.7-0.6,1.1-0.8c0.4-0.2,0.8-0.4,1.2-0.4v-0.1
			c-1.4-0.6-2.5-1.5-3.4-2.6c-0.8-1.1-1.2-2.6-1.2-4.3C164.4,132.3,164.6,131.2,165.1,130.3"/>
	</g>
</g>
</svg>
