<?xml version="1.0" encoding="utf-8"?>
<!-- Generator: Adobe Illustrator 19.1.0, SVG Export Plug-In . SVG Version: 6.00 Build 0)  -->
<svg version="1.1" id="Layer_1" xmlns="http://www.w3.org/2000/svg" xmlns:xlink="http://www.w3.org/1999/xlink" x="0px" y="0px"
	 width="373px" height="164px" viewBox="-13 119 373 164" style="enable-background:new -13 119 373 164;" xml:space="preserve">
<style type="text/css">
	.st0{display:none;}
	.st1{display:inline;stroke:#FFFFFF;stroke-miterlimit:10;}
	.st2{clip-path:url(#SVGID_2_);fill:#FFFFFF;}
	.st3{clip-path:url(#SVGID_4_);fill:#FFFFFF;}
	.st4{clip-path:url(#SVGID_6_);fill:#FFFFFF;}
	.st5{clip-path:url(#SVGID_8_);fill:#FFFFFF;}
	.st6{clip-path:url(#SVGID_10_);fill:#FFFFFF;}
	.st7{clip-path:url(#SVGID_12_);fill:#FFFFFF;}
	.st8{clip-path:url(#SVGID_14_);fill:#FFFFFF;}
	.st9{clip-path:url(#SVGID_16_);fill:#FFFFFF;}
	.st10{fill:#FFFFFF;}
	.st11{clip-path:url(#SVGID_18_);fill:#FFFFFF;}
	.st12{clip-path:url(#SVGID_20_);fill:#FFFFFF;}
	.st13{clip-path:url(#SVGID_22_);fill:#FFFFFF;}
	.st14{clip-path:url(#SVGID_24_);fill:#FFFFFF;}
	.st15{clip-path:url(#SVGID_26_);fill:#FFFFFF;}
	.st16{clip-path:url(#SVGID_28_);fill:#FFFFFF;}
	.st17{clip-path:url(#SVGID_30_);fill:#FFFFFF;}
	.st18{clip-path:url(#SVGID_32_);fill:#FFFFFF;}
	.st19{clip-path:url(#SVGID_34_);fill:#FFFFFF;}
	.st20{clip-path:url(#SVGID_36_);fill:#FFFFFF;}
</style>
<g id="Layer_2" class="st0">
	<rect x="-133" y="61" class="st1" width="614" height="298"/>
</g>
<g id="Layer_1_1_">
	<g>
		<g>
			<defs>
				<rect id="SVGID_1_" x="-15.7" y="126" width="382.4" height="154"/>
			</defs>
			<clipPath id="SVGID_2_">
				<use xlink:href="#SVGID_1_"  style="overflow:visible;"/>
			</clipPath>
			<path class="st2" d="M115.7,126c0.1,0.2-2,1.7-4.7,3.4c-2.7,1.7-5.1,2.9-5.2,2.7c-0.1-0.2,2-1.7,4.7-3.4
				C113.3,127,115.6,125.8,115.7,126"/>
		</g>
		<g>
			<defs>
				<rect id="SVGID_3_" x="-15.7" y="126" width="382.4" height="154"/>
			</defs>
			<clipPath id="SVGID_4_">
				<use xlink:href="#SVGID_3_"  style="overflow:visible;"/>
			</clipPath>
			<path class="st3" d="M181.7,211.3c-1.8-0.1-3.2-0.4-4.7-0.4c-1.7,0-3.2,0.2-4.7,0.4v-10.1c-3.8,7.2-10.5,11.1-18.8,11.1
				c-13,0-19.5-6.7-19.5-22.7l0.1-34c0.7,0,7.4-0.1,9.5-0.2l-0.2,31.3c0,12.4,3.7,19.7,14.3,19.7c12,0,14.5-10.6,14.5-19l0.2-32.1
				c1.5,0.1,3,0.7,4.7,0.7c1.5,0,2.9-0.4,4.7-0.5L181.7,211.3z"/>
		</g>
		<g>
			<defs>
				<rect id="SVGID_5_" x="-15.7" y="126" width="382.4" height="154"/>
			</defs>
			<clipPath id="SVGID_6_">
				<use xlink:href="#SVGID_5_"  style="overflow:visible;"/>
			</clipPath>
			<path class="st4" d="M115.6,126.1l-0.1,29.3h18.6c-0.4,1.7,0.7,3,1.1,4.2l-19.7,0.1l0.1,28.2c0,7.2-1.1,19.1,8.7,19.1
				c1.8,0,3.5-0.5,5.3-0.8v2.8c-3.2,1.2-6.5,2.1-9.9,2.1c-9,0-14.2-4.1-13.6-18.5l-0.1-32.9l-7.4,0.1c0.4-1.5,0.4-3,0.1-4.6l7.3,0.1
				l0.1-23.5L115.6,126.1z"/>
		</g>
		<g>
			<defs>
				<rect id="SVGID_7_" x="-15.7" y="126" width="382.4" height="154"/>
			</defs>
			<clipPath id="SVGID_8_">
				<use xlink:href="#SVGID_7_"  style="overflow:visible;"/>
			</clipPath>
			<path class="st5" d="M272.9,164.8c3.9-6.7,9.2-10.9,17.5-10.9c7.7,0,14.8,4.1,17.2,11.7c4.5-7.6,10.5-11.7,18.5-11.7
				c14.4,0,19,8.4,19,23V211c-1.8-0.1-3.2-0.4-4.7-0.4c-1.7,0-3.2,0.2-4.7,0.4v-31.3c0-10.5-1.5-19.6-13.1-19.6
				c-11.9,0-13.6,10.6-13.6,19.1v31.9c-1.8-0.1-3.2-0.4-4.7-0.4c-1.7,0-3.2,0.2-4.7,0.4v-34.6c0-11.1-3.8-16.4-12.5-16.4
				c-12.2,0-14.2,8-14.2,16.7v34.4c-1.8-0.1-1.2-0.2-2.7-0.2"/>
		</g>
		<g>
			<defs>
				<rect id="SVGID_9_" x="-15.7" y="126" width="382.4" height="154"/>
			</defs>
			<clipPath id="SVGID_10_">
				<use xlink:href="#SVGID_9_"  style="overflow:visible;"/>
			</clipPath>
			<path class="st6" d="M273.1,211.8c-1.8-0.1-3.2-0.4-4.7-0.4c-1.7,0-3.2,0.2-4.7,0.4v-10.1c-3.8,7.2-10.5,11.1-18.8,11.1
				c-13,0-19.5-6.7-19.5-22.7v-34.7c1.5,0.1,3.1,0.4,4.7,0.4c1.5,0,3-0.2,4.7-0.4v31.9c0,12.4,3.7,19.7,14.3,19.7
				c12,0,14.5-10.6,14.5-19v-32.6c1.5,0.1,3.1,0.4,4.7,0.4c1.5,0,3-0.2,4.7-0.4v56.4H273.1z"/>
		</g>
		<g>
			<defs>
				<rect id="SVGID_11_" x="-15.7" y="126" width="382.4" height="154"/>
			</defs>
			<clipPath id="SVGID_12_">
				<use xlink:href="#SVGID_11_"  style="overflow:visible;"/>
			</clipPath>
			<path class="st7" d="M-3.6,154.8c1.5,0.1,3.1,0.4,4.7,0.4c1.5,0,3-0.2,4.7-0.4v10.7c4.1-7.2,10.6-11.5,19-11.5
				c13.7,0,19,7.4,19,23v34.1c-1.8-0.1-3.2-0.4-4.7-0.4c-1.7,0-3.2,0.2-4.7,0.4v-31.3c0-11-2-19.6-13.1-19.6
				c-12.4,0-15.5,9.1-15.5,23.6v27.4c-1.8-0.1-3.2-0.4-4.7-0.4c-1.7,0-3.2,0.2-4.7,0.4C-3.6,211.2-3.6,154.8-3.6,154.8z"/>
		</g>
		<g>
			<defs>
				<rect id="SVGID_13_" x="-15.7" y="126" width="382.4" height="154"/>
			</defs>
			<clipPath id="SVGID_14_">
				<use xlink:href="#SVGID_13_"  style="overflow:visible;"/>
			</clipPath>
			<path class="st8" d="M84.7,181.8l-4.1,0.8c-8,1.5-20.1,2.7-20.1,13.5c0,7.4,4.4,11.1,11.6,11.1c3.2,0,7.2-2.2,9.4-4.5
				c0.8-0.8,3.2-2.8,3.2-3.7V181.8z M94.1,201.3c0,4.6-0.4,7,6.6,5.4v2.6c-0.8,0.4-2.2,0.9-3.5,1.2c-6.1,1.1-11.2,0.1-12.2-6.9
				l-1,1.1c-5,5-10.4,7.4-17.5,7.4c-8.4,0-15.7-5.7-15.7-14.4c0-13.5,10.7-15.2,21.9-17c9.3-1.5,12.5-2.2,12.5-7.9
				c0-8.7-5-13.8-13.8-13.8c-8.6,0-13.2,5.6-14.1,8.1H56v-6.6c5.7-3.9,12-6.5,19-6.5c12.4,0,19.1,6.5,19.1,19.8V201.3z"/>
		</g>
		<g>
			<defs>
				<rect id="SVGID_15_" x="-15.7" y="126" width="382.4" height="154"/>
			</defs>
			<clipPath id="SVGID_16_">
				<use xlink:href="#SVGID_15_"  style="overflow:visible;"/>
			</clipPath>
			<path class="st9" d="M190.7,154.8c1.5,0.1,3.1,0.4,4.7,0.4c1.5,0,3-0.2,4.7-0.4v11.8l0.6-1.4c3.9-6.1,9-11.1,14.9-11.1
				c1.7,0,2.6,0.1,3.7,0.6l-1.7,9.9c-1.8-0.5-3.5-1.9-5.6-1.9c-2.6,0-5.8,0.9-7.6,3c-4.1,4.7-4.4,8.6-4.4,15v30.6
				c-1.8-0.1-3.2-0.4-4.7-0.4c-1.7,0-3.2,0.2-4.7,0.4v-56.5H190.7z"/>
		</g>
	</g>
	<rect x="133.2" y="155.4" class="st10" width="10.4" height="1.5"/>
	<rect x="114.5" y="157.3" class="st10" width="21.6" height="2.4"/>
	<polygon class="st10" points="107.1,193.8 106.2,193.6 106.1,173.6 107.1,173.6 	"/>
	<g>
		<g>
			<defs>
				<rect id="SVGID_17_" x="-15.7" y="126" width="382.4" height="154"/>
			</defs>
			<clipPath id="SVGID_18_">
				<use xlink:href="#SVGID_17_"  style="overflow:visible;"/>
			</clipPath>
			<path class="st11" d="M348.9,150h1c1,0,1.3-0.3,1.3-0.9c0-0.5-0.3-0.8-1.2-0.8h-1.1L348.9,150L348.9,150z M348.9,153h-0.8v-5.4
				h2.1c1.3,0,1.9,0.5,1.9,1.5s-0.6,1.4-1.4,1.5l1.5,2.4h-0.9l-1.4-2.3H349v2.3H348.9z M349.9,146.5c-2.2,0-3.8,1.7-3.8,3.9
				c0,2.3,1.7,3.9,3.8,3.9c2.1,0,3.8-1.6,3.8-3.9C353.7,148.1,352,146.5,349.9,146.5 M349.9,145.7c2.5,0,4.7,2,4.7,4.6
				c0,2.7-2.2,4.7-4.7,4.7c-2.6,0-4.7-2-4.7-4.7C345.2,147.7,347.3,145.7,349.9,145.7"/>
		</g>
		<g>
			<defs>
				<rect id="SVGID_19_" x="-15.7" y="126" width="382.4" height="154"/>
			</defs>
			<clipPath id="SVGID_20_">
				<use xlink:href="#SVGID_19_"  style="overflow:visible;"/>
			</clipPath>
			<path class="st12" d="M-2,261.8c0.1-2,0.1-4,0.1-6.1v-8c0-2,0-4.1-0.1-6c-0.1-2-0.2-4-0.3-6c0.4,0.1,0.8,0.1,1.2,0.2
				c0.4,0,0.7,0.1,1.1,0.1c0.4,0,0.7,0,1.1-0.1c0.4,0,0.8-0.1,1.2-0.2c-0.1,2-0.2,4.1-0.3,6c-0.1,2-0.1,4-0.1,6v2.6
				c0,0.2,0.1,0.4,0.3,0.4c0.1,0,0.3-0.1,0.7-0.4c1.1-0.9,2.2-2,3.4-3.2c1.2-1.2,2.4-2.4,3.6-3.7s2.4-2.6,3.6-3.9
				c1.2-1.3,2.3-2.6,3.4-3.8c0.3,0.1,0.7,0.1,1,0.2c0.3,0,0.6,0.1,0.9,0.1c0.4,0,0.7,0,1.1-0.1c0.4,0,0.7-0.1,1.1-0.2
				c-1.1,0.9-2.3,2-3.7,3.3c-1.4,1.3-2.7,2.6-4.1,3.9s-2.7,2.6-4,3.9c-1.3,1.3-2.3,2.4-3.1,3.4c2.5,2.8,5,5.7,7.6,8.6
				c2.6,2.9,5.2,5.9,7.8,8.8c-0.5-0.1-0.9-0.1-1.4-0.1h-1.4h-1.3c-0.4,0-0.8,0-1.3,0.1c-1.1-1.3-2.4-2.7-3.7-4.4
				c-1.3-1.6-2.7-3.2-4-4.8c-1.3-1.5-2.5-2.9-3.5-4.1c-1-1.2-1.8-2.1-2.3-2.6c-0.2-0.2-0.4-0.4-0.6-0.4c-0.2,0-0.2,0.1-0.2,0.3v4
				c0,2,0,4.1,0.1,6c0.1,2,0.2,3.9,0.3,5.9c-0.7-0.1-1.5-0.1-2.3-0.1s-1.6,0-2.3,0.1C-2.2,265.7-2.1,263.8-2,261.8"/>
		</g>
		<g>
			<defs>
				<rect id="SVGID_21_" x="-15.7" y="126" width="382.4" height="154"/>
			</defs>
			<clipPath id="SVGID_22_">
				<use xlink:href="#SVGID_21_"  style="overflow:visible;"/>
			</clipPath>
			<path class="st13" d="M22.8,256.4c0.1-1.2,0.1-2.3,0.1-3.5c0-1.1,0-2.3,0-3.5c0-1.3,0-2.6-0.1-3.9c0.8,0.2,1.4,0.3,2,0.3
				c0.5,0,1.1-0.1,1.9-0.3c-0.1,1.9-0.3,3.9-0.3,6.1c-0.1,2.2-0.1,4.5-0.1,6.8c0,1.6,0.1,2.8,0.4,3.7c0.3,0.9,0.6,1.5,1,1.9
				c0.4,0.5,1,0.9,1.7,1.2s1.4,0.5,2.3,0.5c1.3,0,2.4-0.3,3.3-0.9c0.9-0.6,1.5-1.3,1.9-2.1c0.2-0.5,0.4-1,0.5-1.3
				c0.1-0.4,0.2-0.9,0.3-1.5c0.1-0.6,0.1-1.5,0.1-2.5c0-1.1,0-2.5,0-4.3v-3.9c0-0.7,0-1.3,0-2c0-0.6,0-1.2,0-1.8
				c0.3,0.1,0.7,0.1,1,0.2s0.6,0.1,1,0.1c0.3,0,0.7,0,1-0.1s0.6-0.1,0.9-0.2c-0.2,2.4-0.3,4.8-0.3,7c0,2.3,0,4.6,0,7.2
				c0,1.4,0,2.8,0,4.1s0.1,2.6,0.1,3.9c-0.6-0.1-1.2-0.1-1.8-0.1s-1.2,0-1.8,0.1c0-0.3,0.1-0.6,0.1-0.9c0-0.3,0-0.6,0-1v-2h-0.1
				c-0.8,1.5-1.9,2.6-3.1,3.3c-1.3,0.7-2.7,1-4.2,1c-2.4,0-4.3-0.6-5.7-1.9s-2.1-3.1-2.1-5.6C22.7,258.9,22.7,257.5,22.8,256.4"/>
		</g>
		<g>
			<defs>
				<rect id="SVGID_23_" x="-15.7" y="126" width="382.4" height="154"/>
			</defs>
			<clipPath id="SVGID_24_">
				<use xlink:href="#SVGID_23_"  style="overflow:visible;"/>
			</clipPath>
			<path class="st14" d="M48.4,242.5c0-1.2,0-2.5-0.1-3.7c0-1.2-0.1-2.4-0.1-3.5s-0.1-2-0.2-2.8c0.9,0.1,1.6,0.2,2.1,0.2
				s1.2-0.1,2.1-0.2c-0.1,0.8-0.1,1.7-0.1,2.8c0,1.1-0.1,2.3-0.1,3.5s0,2.4-0.1,3.7c0,1.2,0,2.4,0,3.4v8.4c0,1.1,0,2.2,0,3.4
				c0,1.2,0,2.5,0.1,3.7c0,1.2,0.1,2.4,0.1,3.4c0,1.1,0.1,2,0.1,2.7c-0.7-0.1-1.4-0.1-2.1-0.1c-0.7,0-1.4,0-2.1,0.1
				c0.1-0.7,0.1-1.6,0.2-2.7c0-1.1,0.1-2.2,0.1-3.4s0.1-2.4,0.1-3.7c0-1.2,0-2.4,0-3.4v-8.4C48.4,244.9,48.4,243.7,48.4,242.5"/>
		</g>
		<g>
			<defs>
				<rect id="SVGID_25_" x="-15.7" y="126" width="382.4" height="154"/>
			</defs>
			<clipPath id="SVGID_26_">
				<use xlink:href="#SVGID_25_"  style="overflow:visible;"/>
			</clipPath>
			<path class="st15" d="M59.9,242.5c0-1.2,0-2.5-0.1-3.7c0-1.2-0.1-2.4-0.1-3.5s-0.1-2-0.2-2.8c0.9,0.1,1.6,0.2,2.1,0.2
				s1.2-0.1,2.1-0.2c-0.1,0.8-0.1,1.7-0.1,2.8c0,1.1-0.1,2.3-0.1,3.5s0,2.4-0.1,3.7c0,1.2,0,2.4,0,3.4v8.4c0,1.1,0,2.2,0,3.4
				c0,1.2,0,2.5,0.1,3.7c0,1.2,0.1,2.4,0.1,3.4c0,1.1,0.1,2,0.1,2.7c-0.7-0.1-1.4-0.1-2.1-0.1s-1.4,0-2.1,0.1
				c0.1-0.7,0.1-1.6,0.2-2.7c0-1.1,0.1-2.2,0.1-3.4s0.1-2.4,0.1-3.7c0-1.2,0-2.4,0-3.4v-8.4C60,244.9,60,243.7,59.9,242.5"/>
		</g>
		<g>
			<defs>
				<rect id="SVGID_27_" x="-15.7" y="126" width="382.4" height="154"/>
			</defs>
			<clipPath id="SVGID_28_">
				<use xlink:href="#SVGID_27_"  style="overflow:visible;"/>
			</clipPath>
			<path class="st16" d="M80.4,256.5c-0.7,0.1-1.4,0.3-2.1,0.4s-1.4,0.3-2.1,0.5s-1.3,0.5-1.9,0.9c-0.5,0.4-1,0.8-1.3,1.4
				s-0.5,1.3-0.5,2.1c0,1.5,0.4,2.6,1.3,3.3c0.8,0.7,1.8,1.1,2.8,1.1c1.2,0,2.3-0.3,3.2-1c1-0.7,1.7-1.4,2.3-2.3l0.2-7
				C81.7,256.2,81.1,256.4,80.4,256.5 M74.6,245.6c1.2-0.4,2.4-0.6,3.6-0.6c1.1,0,2.1,0.2,3.1,0.5c0.9,0.3,1.7,0.8,2.4,1.4
				c0.6,0.6,1.2,1.3,1.5,2.2c0.4,0.9,0.6,1.8,0.6,2.8c0,1.8,0,3.5-0.1,5.3c-0.1,1.8-0.1,3.6-0.1,5.6c0,0.4,0,0.8,0,1.2
				c0,0.4,0.1,0.8,0.2,1.1c0.1,0.3,0.3,0.6,0.5,0.8s0.6,0.3,1,0.3c0.2,0,0.3,0,0.5,0s0.3-0.1,0.5-0.2v1c-0.3,0.2-0.8,0.3-1.3,0.4
				c-0.5,0.1-1.1,0.1-1.7,0.1c-1,0-1.8-0.3-2.3-0.8s-0.8-1.2-0.9-2c-1.1,1.1-2.2,1.9-3.3,2.5c-1.1,0.5-2.4,0.8-4,0.8
				c-0.8,0-1.5-0.1-2.3-0.3c-0.7-0.2-1.4-0.6-2-1.1s-1-1.1-1.4-1.8s-0.5-1.5-0.5-2.4c0-1.9,0.6-3.3,1.7-4.3c1.2-1,2.8-1.7,4.8-2
				c1.7-0.3,3-0.5,3.9-0.7s1.6-0.4,2.1-0.6c0.4-0.2,0.7-0.5,0.8-0.8c0.1-0.3,0.1-0.7,0.1-1.1c0-0.8-0.1-1.5-0.3-2.2
				c-0.2-0.7-0.5-1.3-0.9-1.9c-0.4-0.5-0.9-1-1.6-1.3s-1.4-0.5-2.4-0.5c-1.2,0-2.4,0.3-3.5,0.8c-1.1,0.6-1.9,1.3-2.4,2.3h-0.5v-2.4
				C72.1,246.7,73.4,246,74.6,245.6"/>
		</g>
		<g>
			<defs>
				<rect id="SVGID_29_" x="-15.7" y="126" width="382.4" height="154"/>
			</defs>
			<clipPath id="SVGID_30_">
				<use xlink:href="#SVGID_29_"  style="overflow:visible;"/>
			</clipPath>
			<path class="st17" d="M107.9,252.1c-0.4-1.1-0.8-2-1.4-2.8c-0.6-0.7-1.2-1.3-2-1.7s-1.5-0.6-2.4-0.6c-1,0-1.9,0.2-2.8,0.5
				c-0.9,0.4-1.7,0.9-2.3,1.8c-0.7,0.8-1.2,1.9-1.6,3.2s-0.6,2.9-0.6,4.9c0,6.2,2.3,9.4,6.8,9.4c1,0,1.9-0.3,2.7-0.8
				c0.8-0.5,1.5-1.2,2.1-2.2s1.1-2.1,1.4-3.4c0.3-1.3,0.5-2.8,0.5-4.5C108.5,254.4,108.3,253.2,107.9,252.1 M111.7,260.9
				c-0.5,1.5-1.3,2.8-2.2,3.8c-0.9,1.1-2.1,1.9-3.4,2.5c-1.3,0.6-2.7,0.9-4.2,0.9s-2.8-0.3-4-1c-1.2-0.6-2.1-1.4-2.7-2.3
				c-1.1,0.9-2.2,1.8-3.1,2.7h-0.8c0.1-0.7,0.1-1.6,0.2-2.7c0-1.1,0.1-2.2,0.1-3.4s0.1-2.4,0.1-3.7c0-1.2,0-2.4,0-3.4v-8.4
				c0-1.1,0-2.2,0-3.4c0-1.2,0-2.5-0.1-3.7c0-1.2-0.1-2.4-0.1-3.5s-0.1-2-0.2-2.8c0.9,0.1,1.6,0.2,2.1,0.2c0.3,0,0.7,0,1.1-0.1
				c0.4,0,0.8-0.1,1.2-0.2c-0.1,0.6-0.2,1.6-0.2,3c-0.1,1.4-0.1,2.9-0.1,4.5c0,1.7-0.1,3.4-0.1,5.1c0,1.8-0.1,3.3-0.1,4.8h0.1
				c1.1-1.7,2.2-2.9,3.5-3.7c1.3-0.8,2.7-1.2,4.4-1.2c1.6,0,3,0.3,4.2,0.9c1.2,0.6,2.2,1.4,2.9,2.4c0.8,1,1.4,2.1,1.7,3.5
				c0.4,1.3,0.6,2.7,0.6,4.2C112.6,257.8,112.3,259.4,111.7,260.9"/>
		</g>
		<g>
			<defs>
				<rect id="SVGID_31_" x="-15.7" y="126" width="382.4" height="154"/>
			</defs>
			<clipPath id="SVGID_32_">
				<use xlink:href="#SVGID_31_"  style="overflow:visible;"/>
			</clipPath>
			<path class="st18" d="M122.6,247.3c-0.8,0.5-1.4,1.2-2,2c-0.5,0.8-0.9,1.6-1.2,2.6c-0.3,0.9-0.4,1.8-0.5,2.7c1,0,2,0.1,3,0.1
				s2.1,0.1,3.1,0.1s2.1,0,3.1-0.1c1.1,0,2.1-0.1,3.1-0.1c0-0.8-0.1-1.7-0.2-2.6c-0.1-0.9-0.4-1.8-0.8-2.6c-0.4-0.8-1-1.5-1.7-2
				s-1.7-0.8-2.9-0.8C124.3,246.6,123.4,246.8,122.6,247.3 M117.4,248.3c1.8-2.2,4.5-3.3,7.9-3.3c1.6,0,3.1,0.3,4.3,0.8s2.2,1.2,3,2
				c0.8,0.9,1.4,1.9,1.8,3c0.4,1.1,0.6,2.4,0.6,3.7c0,0.3,0,0.6,0,0.9c0,0.3,0,0.6-0.1,0.9c-1.7,0-3.3-0.1-5-0.1
				c-1.6,0-3.3-0.1-5-0.1c-1,0-2,0-3,0.1c-1,0-2,0.1-3,0.1c0,0.2-0.1,0.4-0.1,0.7v0.6c0,1.2,0.2,2.4,0.5,3.4c0.4,1.1,0.9,2,1.6,2.7
				c0.7,0.8,1.5,1.4,2.5,1.8c1,0.4,2.1,0.7,3.5,0.7c0.6,0,1.3-0.1,1.9-0.3c0.6-0.2,1.3-0.4,1.9-0.7c0.6-0.3,1.2-0.6,1.7-1.1
				c0.5-0.4,1-0.8,1.4-1.3l0.2,0.1l-0.3,2.3c-0.9,0.7-2.1,1.4-3.5,1.9s-2.8,0.8-4.3,0.8c-1.7,0-3.2-0.3-4.6-0.8
				c-1.4-0.5-2.6-1.3-3.6-2.2c-1-1-1.8-2.1-2.3-3.5c-0.5-1.3-0.8-2.8-0.8-4.3C114.7,253.5,115.6,250.5,117.4,248.3"/>
		</g>
		<g>
			<defs>
				<rect id="SVGID_33_" x="-15.7" y="126" width="382.4" height="154"/>
			</defs>
			<clipPath id="SVGID_34_">
				<use xlink:href="#SVGID_33_"  style="overflow:visible;"/>
			</clipPath>
			<path class="st19" d="M148.2,248.8c-0.5-0.2-0.9-0.2-1.4-0.2c-0.7,0-1.4,0.2-2,0.5s-1.1,0.8-1.5,1.4c-0.4,0.6-0.7,1.3-0.9,2.1
				s-0.3,1.6-0.3,2.5v5.1c0,2.1,0,3.7,0,4.8c0,1.1,0.1,2,0.1,2.7c-0.6-0.1-1.2-0.1-1.9-0.1s-1.3,0-1.9,0.1c0.1-1.1,0.1-2.5,0.1-4.3
				c0-1.8,0-4,0-6.7v-1.5c0-1.2,0-2.6,0-4.2c0-1.6-0.1-3.4-0.1-5.5c0.3,0.1,0.7,0.1,1,0.2c0.3,0,0.6,0.1,1,0.1c0.3,0,0.6,0,0.9-0.1
				c0.3,0,0.6-0.1,1-0.2c-0.1,1.1-0.2,2-0.2,2.7s0,1.3,0,1.9h0.1c1.8-3.4,3.9-5,6.1-5c0.3,0,0.5,0,0.7,0s0.5,0.1,0.8,0.2
				c-0.2,0.4-0.2,0.9-0.3,1.7c0,0.8,0,1.4,0,2.1l-0.3,0.2C149,249.1,148.7,249,148.2,248.8"/>
		</g>
		<g>
			<defs>
				<rect id="SVGID_35_" x="-15.7" y="126" width="382.4" height="154"/>
			</defs>
			<clipPath id="SVGID_36_">
				<use xlink:href="#SVGID_35_"  style="overflow:visible;"/>
			</clipPath>
			<path class="st20" d="M164,247.9c-0.9-1-2.2-1.5-3.7-1.5c-1.7,0-3,0.6-3.9,1.7c-0.9,1.1-1.4,2.6-1.4,4.5c0,2,0.4,3.5,1.3,4.6
				c0.9,1.1,2.2,1.7,4,1.7c0.9,0,1.7-0.2,2.3-0.5c0.6-0.4,1.2-0.8,1.6-1.4c0.4-0.6,0.7-1.3,0.9-2.1s0.3-1.6,0.3-2.5
				C165.4,250.4,164.9,249,164,247.9 M166.3,268.6c-1.1-0.7-2.9-1.1-5.4-1.1c-2.3,0-4.1,0.4-5.4,1.1c-1.3,0.8-1.9,2.1-1.9,4.1
				c0,1.1,0.2,2,0.5,2.7c0.4,0.7,0.8,1.3,1.4,1.8c0.6,0.5,1.3,0.8,2.2,1c0.8,0.2,1.7,0.3,2.7,0.3c0.9,0,1.8-0.1,2.7-0.4
				c0.9-0.2,1.7-0.6,2.4-1.1s1.3-1.1,1.7-1.9c0.4-0.8,0.7-1.7,0.7-2.7C167.9,270.7,167.4,269.4,166.3,268.6 M152.1,249.3
				c0.5-0.9,1.1-1.7,1.9-2.4c0.8-0.6,1.8-1.1,2.8-1.4c1.1-0.3,2.2-0.5,3.4-0.5c0.6,0,1.2,0,1.7,0s1.2,0.1,2.1,0.1
				c0.7,0.1,1.3,0.1,1.9,0.2c0.6,0,1,0.1,1.3,0.1c1.7,0,3-0.1,3.8-0.2c0,0.2-0.1,0.3-0.1,0.5s0,0.3,0,0.5s0,0.3,0,0.5s0,0.3,0.1,0.5
				c-0.9-0.1-1.8-0.1-2.6-0.2c-0.9-0.1-1.7-0.1-2.5-0.2l-0.1,0.1c1,0.5,1.7,1.3,2.3,2.4s0.9,2.2,0.9,3.4c0,2.3-0.8,4.2-2.3,5.5
				c-1.6,1.3-3.7,2-6.3,2c-0.4,0-0.9,0-1.3-0.1c-0.4,0-0.8-0.1-1.3-0.1c-0.6,0-1.1,0.2-1.6,0.6c-0.5,0.4-0.7,0.9-0.7,1.5
				c0,0.8,0.2,1.4,0.6,1.8c0.4,0.4,1.1,0.6,2.2,0.6c0.9,0,1.7,0.1,2.6,0.1c0.8,0,1.7,0,2.6,0.1c1.4,0,2.6,0.2,3.7,0.5
				c1,0.3,1.8,0.7,2.5,1.3c0.6,0.5,1.1,1.1,1.4,1.8c0.3,0.7,0.4,1.4,0.4,2.2c0,1.1-0.2,2.2-0.6,3.3c-0.4,1.1-1.1,2.1-2,3
				s-2,1.6-3.4,2.2c-1.4,0.6-3.1,0.9-5,0.9c-3,0-5.4-0.6-7.1-1.8c-1.7-1.2-2.6-2.8-2.6-4.9c0-0.8,0.1-1.6,0.4-2.2
				c0.3-0.7,0.7-1.3,1.1-1.8c0.5-0.5,1-0.9,1.6-1.3c0.6-0.3,1.2-0.5,1.8-0.7v-0.1c-1-0.3-1.7-0.7-2.2-1.4c-0.5-0.6-0.8-1.4-0.8-2.3
				c0-0.5,0.1-1,0.3-1.4c0.2-0.4,0.5-0.8,0.8-1.2c0.3-0.3,0.7-0.6,1.1-0.8c0.4-0.2,0.8-0.4,1.2-0.4v-0.1c-1.4-0.6-2.5-1.5-3.4-2.6
				c-0.8-1.1-1.2-2.6-1.2-4.3C151.4,251.3,151.6,250.2,152.1,249.3"/>
		</g>
	</g>
</g>
</svg>
