<?xml version="1.0" encoding="utf-8"?>
<!-- Generator: Adobe Illustrator 19.1.0, SVG Export Plug-In . SVG Version: 6.00 Build 0)  -->
<svg version="1.1" id="Lager_1" xmlns="http://www.w3.org/2000/svg" xmlns:xlink="http://www.w3.org/1999/xlink" x="0px" y="0px"
	 width="692.708374px" height="443.669952px" viewBox="0 0 692.708374 443.669952"
	 style="enable-background:new 0 0 692.708374 443.669952;" xml:space="preserve">
<style type="text/css">
	.st0{fill:#FCE428;}
	.st1{fill:#BD0D2E;}
</style>
<path class="st0" d="M322.48053,128.164795c7.292328-3.152908,14.960693-5.531265,22.600647-7.149017L344.72644,18.766043
	c-26.40683,0.370224-51.046112,8.010986-72.010742,21.032431l45.610229,90.285217
	C319.691589,129.436691,321.046265,128.785812,322.48053,128.164795z"/>
<path class="st0" d="M307.928802,135.733734l-58.696396-77.633377c-18.641617,17.978825-32.332657,41.044422-38.807236,66.984024
	l78.255188,29.978981C292.527527,147.584137,299.144623,141.226257,307.928802,135.733734z"/>
<path class="st0" d="M406.745972,137.035645c17.73996,36.36673-23.062531,35.480072-6.20813,63.864044
	c7.828308,13.185425,32.501343,30.387299,56.67807,45.031982c18.773987-23.886765,30.003357-53.983856,30.003357-86.720963
	c0-28.588974-8.561157-55.168289-23.227783-77.356743l-61.103821,49.546501
	C404.381805,133.115189,405.729401,134.949707,406.745972,137.035645z"/>
<path class="st0" d="M393.92157,124.374405l50.758362-65.831985c-18.597382-18.100166-42.176849-31.092398-68.503296-36.709511
	l-19.432739,97.340469C370.901672,117.721848,384.201996,119.2584,393.92157,124.374405z"/>
<path class="st1" d="M373.038757,239.929169c-28.383179-25.724304-62.976898-7.096893-80.717621-41.690628
	c-6.299652-12.284515-8.399628-22.844955-7.122253-32.030197l-78.900574-9.707672
	c-0.017258,0.904587-0.068588,1.801422-0.068588,2.710037c0,77.591537,62.903641,140.49437,140.495193,140.49437
	c21.503662,0,41.869568-4.847931,60.088684-13.483185C397.483429,269.501617,385.612518,251.323334,373.038757,239.929169z
	 M335.931274,286.52063c-8.424805,0-15.254578-6.829132-15.254578-15.253113c0-8.424774,6.829773-15.254578,15.254578-15.254578
	c8.424774,0,15.253906,6.829803,15.253906,15.254578C351.185181,279.691498,344.356049,286.52063,335.931274,286.52063z"/>
<path class="st1" d="M205.203796,333.587891c-12.970139-5.685547-20.70079-7.881744-28.29895-7.881744
	c-7.992096,0-13.101807,2.842377-13.101807,7.235687c0,13.31131,45.462234,9.563385,45.462234,40.320099
	c0,16.928467-14.411484,26.750427-34.325806,26.750427c-15.590256,0-23.320114-4.007935-32.229538-8.531158v-18.994568
	c12.839386,8.400421,20.699966,11.371246,30.526733,11.371246c8.51532,0,13.100845-2.970825,13.100845-8.141876
	c0-14.472961-45.462082-9.174286-45.462082-40.835724c0-15.248291,13.364227-25.327942,34.064041-25.327942
	c9.956848,0,18.997818,2.067719,30.264328,6.849487V333.587891z"/>
<path class="st1" d="M265.729828,352.067139l39.436005,46.782074h-27.906433l-35.374512-41.354095v41.354095h-22.272049v-88.133759
	h22.272049v39.931793h0.263229l28.168045-39.931793h24.499847L265.729828,352.067139z"/>
<path class="st1" d="M471.35788,398.849213h-18.736176l-39.350983-56.473114v56.473114h-22.272858v-88.133759h20.439972
	l37.647186,53.887695v-53.887695h22.272858V398.849213z"/>
<path class="st1" d="M553.055969,398.849213h-67.202972v-88.133759h66.285614v16.153839h-44.014404v18.479279h42.049072v16.152832
	h-42.049072v21.193359h44.931763V398.849213z"/>
<path class="st1" d="M148.378204,281.282623c3.546173,0,5.648575,2.820251,5.648575,5.881805
	c0,2.250549-0.988174,3.931396-2.96373,5.011902c1.77301,1.049652,2.305756,3.57132,4.736908,9.572906h-4.736908
	c-1.848694-4.381378-2.532654-8.312164-4.862946-8.312164h-1.241074v8.312164h-4.306641v-20.466614H148.378204z
	 M144.95903,289.685303h2.27977c1.189911,0,2.355301-0.600525,2.355301-2.340454c0-1.531097-0.835999-2.311249-2.45697-2.311249
	h-2.178101V289.685303z"/>
<path class="st1" d="M170.854401,301.749237h-12.740784v-20.466614h12.564224v3.750977h-8.258545v4.291626h7.878006v3.751007
	h-7.878006v4.921997h8.435104V301.749237z"/>
<path class="st1" d="M190.131088,287.164429c-2.203262-1.260132-4.331818-1.890503-6.458588-1.890503
	c-4.686386,0-6.333359,3.420776-6.333359,6.452454c0,3.630432,2.406616,6.031555,5.978622,6.031555
	c1.063873,0,1.595001-0.119751,2.86142-0.720276v-2.40033h-2.506683v-3.750977h6.813324v8.37265
	c-1.291595,1.590332-4.4832,2.760559-7.269562,2.760559c-6.028503,0-10.309799-4.351532-10.309799-10.473785
	c0-6.241852,4.25531-10.533478,10.411301-10.533478c2.583191,0,5.090668,0.689453,6.813324,1.680054V287.164429z"/>
<path class="st1" d="M198.86171,301.749237h-4.306641v-20.466614h4.306641V301.749237z"/>
<path class="st1" d="M211.890106,302.019562c-6.332565,0-9.903915-5.282257-9.903915-10.503632
	c0-4.952057,3.39415-10.503632,9.903915-10.503632c6.509903,0,9.878723,5.581604,9.878723,10.503632
	C221.768829,296.768127,218.095947,302.019562,211.890106,302.019562z M211.890106,285.273926
	c-3.293137,0-5.471237,2.490204-5.471237,6.242004c0,3.750977,2.178101,6.242004,5.471237,6.242004
	c3.267288,0,5.446198-2.491028,5.446198-6.242004C217.336304,287.76413,215.157394,285.273926,211.890106,285.273926z"/>
<path class="st1" d="M242.019653,301.749237h-3.621719l-9.549332-13.115234v13.115234h-4.306641v-20.466614h3.951096
	l9.220764,12.513855v-12.513855h4.305832V301.749237z"/>
<path class="st1" d="M388.224091,398.844543h-23.979706l-7.339752-17.450104h-39.967957l-6.684052,17.450104h-23.587189
	l36.037323-88.153595h25.815826L388.224091,398.844543z M335.937561,331.760498l-13.104065,34.253174h27.519592
	L335.937561,331.760498z"/>
</svg>
